<?xml version="1.0" standalone="no"?>
<!DOCTYPE svg PUBLIC "-//W3C//DTD SVG 20010904//EN"
 "http://www.w3.org/TR/2001/REC-SVG-20010904/DTD/svg10.dtd">
<svg version="1.0" xmlns="http://www.w3.org/2000/svg"
 width="1672.000000pt" height="940.000000pt" viewBox="0 0 1672.000000 940.000000"
 preserveAspectRatio="xMidYMid meet">

<g transform="translate(0.000000,940.000000) scale(0.100000,-0.100000)"
fill="#000000" stroke="none">
<path d="M280 7115 l0 -2025 -100 0 -100 0 0 -410 0 -410 100 0 100 0 0 -2025
0 -2025 8060 0 8060 0 0 2025 0 2024 103 3 102 3 0 405 0 405 -102 3 -103 3 0
2024 0 2025 -8060 0 -8060 0 0 -2025z m1300 1865 l0 -80 40 0 40 0 0 80 0 80
685 0 685 0 0 -80 0 -80 40 0 40 0 0 80 0 80 590 0 590 0 -2 -171 -3 -170
-160 -2 -160 -2 -3 -37 -3 -37 163 -3 163 -3 3 -3962 2 -3963 -162 -2 -163 -3
-3 -37 -3 -37 163 -3 163 -3 0 -165 0 -165 -587 -3 -588 -2 0 85 0 85 -40 0
-40 0 0 -85 0 -85 -685 0 -684 0 -3 83 -3 82 -37 3 -37 3 -3 -83 -3 -83 -607
-3 -608 -2 0 630 c0 497 3 630 13 631 6 1 22 3 35 4 13 1 31 10 40 19 26 25 4
50 -47 54 l-41 3 0 225 0 224 178 1 c97 0 186 2 197 4 11 1 66 6 122 9 419 25
970 258 1333 565 584 492 872 1195 855 2081 -14 660 -181 1181 -521 1615 -303
389 -759 687 -1279 838 -203 59 -289 70 -600 76 l-280 6 -3 223 -2 222 34 0
c19 0 42 7 50 16 19 18 19 20 6 45 -8 14 -21 19 -50 19 l-40 0 0 630 0 630
610 0 610 0 0 -80z m6720 -90 l0 -170 -159 0 c-172 0 -171 0 -171 -56 l0 -24
165 0 165 0 0 -3965 0 -3965 -162 -2 -163 -3 0 -35 0 -35 163 -3 162 -2 0
-170 0 -170 -1965 0 -1965 0 0 170 0 170 160 0 160 0 0 40 0 40 -160 0 -160 0
0 3965 0 3965 160 0 160 0 0 39 0 40 -147 0 c-82 0 -154 1 -160 1 -10 0 -13
41 -13 170 l0 170 1965 0 1965 0 0 -170z m4010 0 l0 -170 -160 0 -160 0 0 -40
0 -40 160 0 160 0 0 -3965 0 -3965 -161 0 -160 0 3 -36 3 -36 158 1 157 0 0
-174 0 -175 -1965 0 -1965 0 0 170 0 170 163 2 162 3 0 35 0 35 -163 3 -162 2
2 3963 3 3962 163 3 162 2 0 24 c0 56 0 56 -171 56 l-159 0 0 170 0 170 1965
0 1965 0 0 -170z m1260 90 l0 -80 40 0 40 0 0 80 0 80 685 0 685 0 0 -80 0
-80 40 0 40 0 0 80 0 80 610 0 610 0 0 -630 0 -630 -40 0 c-29 0 -42 -5 -50
-19 -13 -25 -13 -27 6 -45 8 -9 31 -16 50 -16 l34 0 -2 -222 -3 -223 -280 -6
c-311 -6 -397 -17 -600 -76 -520 -151 -976 -449 -1279 -838 -286 -366 -451
-799 -507 -1335 -26 -245 -14 -637 27 -885 101 -615 370 -1101 814 -1476 358
-303 904 -536 1320 -564 52 -4 109 -8 125 -10 17 -2 110 -4 208 -4 l177 -1 0
-225 0 -225 -39 0 c-78 0 -80 -58 -2 -73 l41 -8 0 -630 0 -629 -607 2 -608 3
-3 83 -3 83 -37 -3 -37 -3 -3 -83 -3 -82 -684 0 -685 0 0 85 0 85 -40 0 -40 0
0 -85 0 -85 -587 2 -588 3 0 170 0 170 163 3 162 2 0 35 0 35 -162 2 -163 3
-3 3962 -2 3963 162 2 163 3 3 37 3 37 -163 3 -163 3 -3 168 -2 167 590 0 590
0 0 -80z m-12795 -1790 c193 -12 292 -28 451 -74 665 -195 1188 -614 1472
-1181 227 -454 317 -1061 247 -1658 -118 -995 -701 -1705 -1656 -2015 -231
-75 -429 -102 -755 -102 l-174 0 0 325 0 325 80 0 80 0 0 40 0 40 -80 0 -80 0
0 335 0 335 80 0 80 0 0 40 0 40 -80 0 -80 0 0 1040 0 1040 80 0 80 0 0 35 0
35 -80 0 -80 0 0 340 0 340 80 0 80 0 0 40 0 40 -80 0 -80 0 0 325 0 325 128
0 c70 0 199 -5 287 -10z m15545 -315 l0 -325 -80 0 -80 0 0 -40 0 -40 80 0 80
0 0 -340 0 -340 -80 0 -80 0 0 -35 0 -35 80 0 80 0 0 -1040 0 -1040 -80 0 -80
0 0 -40 0 -40 80 0 80 0 0 -335 0 -335 -80 0 -80 0 0 -40 0 -40 80 0 80 0 0
-325 0 -325 -168 0 c-330 0 -531 27 -761 102 -738 240 -1255 717 -1507 1390
-228 609 -230 1441 -4 2044 237 631 695 1087 1350 1344 306 120 512 155 933
159 l157 1 0 -325z m-16040 -2195 l0 -331 -62 3 -63 3 -3 314 c-1 173 0 321 2
328 4 9 25 13 66 13 l60 0 0 -330z m16250 0 l0 -330 -65 0 -65 0 0 330 0 330
65 0 65 0 0 -330z"/>
<path d="M590 7781 c-13 -25 -13 -27 6 -45 12 -13 39 -16 124 -16 124 0 140 4
140 34 0 40 -17 46 -142 46 -106 0 -118 -2 -128 -19z"/>
<path d="M1000 7765 c-18 -21 -8 -49 20 -57 14 -4 67 -13 118 -20 78 -12 96
-12 113 0 48 33 8 65 -104 81 -103 15 -132 14 -147 -4z"/>
<path d="M1394 7686 c-15 -39 1 -51 111 -88 117 -40 155 -40 155 1 0 27 -16
37 -120 70 -105 34 -138 38 -146 17z"/>
<path d="M1775 7539 c-10 -30 13 -48 123 -99 101 -47 127 -47 127 1 0 20 -15
31 -95 71 -106 53 -145 60 -155 27z"/>
<path d="M2140 7365 c-22 -26 0 -52 100 -114 84 -52 103 -60 120 -51 47 25 21
59 -101 133 -81 50 -100 55 -119 32z"/>
<path d="M2482 7138 c-24 -24 -10 -48 74 -122 88 -77 112 -88 134 -61 18 22 4
47 -57 101 -110 96 -128 105 -151 82z"/>
<path d="M2777 6863 c-18 -17 -2 -51 61 -128 63 -80 98 -105 121 -90 6 3 11
18 11 32 0 37 -133 193 -164 193 -12 0 -26 -3 -29 -7z"/>
<path d="M3027 6543 c-17 -16 -2 -55 54 -141 54 -83 64 -93 87 -90 47 5 40 42
-27 146 -48 73 -65 92 -84 92 -13 0 -27 -3 -30 -7z"/>
<path d="M3232 6188 c-18 -18 -15 -35 32 -143 37 -86 47 -100 69 -103 44 -5
51 26 21 99 -61 150 -87 182 -122 147z"/>
<path d="M3383 5813 c-19 -7 -16 -34 13 -142 29 -105 37 -121 65 -121 38 0 41
34 13 137 -14 54 -30 106 -35 116 -9 16 -31 21 -56 10z"/>
<path d="M3476 5414 c-19 -18 -19 -12 3 -143 18 -111 33 -137 69 -115 20 14
20 78 1 182 -15 84 -40 110 -73 76z"/>
<path d="M3521 5007 c-16 -20 -2 -234 16 -253 19 -18 28 -18 49 3 15 15 16 31
10 127 -4 60 -11 116 -18 123 -14 17 -42 17 -57 0z"/>
<path d="M3537 4606 c-14 -15 -31 -223 -21 -251 11 -29 57 -28 68 1 3 8 9 63
12 122 6 94 5 110 -10 125 -21 21 -30 21 -49 3z"/>
<path d="M3500 4188 c-5 -13 -16 -67 -25 -121 -17 -104 -11 -137 24 -137 27 0
37 17 49 85 21 120 24 165 12 180 -18 22 -49 18 -60 -7z"/>
<path d="M3433 3798 c-15 -19 -65 -213 -61 -234 5 -26 53 -31 66 -7 6 10 22
62 37 115 20 76 24 102 15 118 -12 22 -42 27 -57 8z"/>
<path d="M3312 3408 c-26 -32 -92 -204 -87 -226 9 -37 55 -26 77 18 56 116 78
181 68 200 -12 22 -42 26 -58 8z"/>
<path d="M3114 3008 c-15 -24 -42 -67 -61 -97 -40 -63 -40 -95 -1 -99 25 -3
34 6 88 89 68 104 76 142 28 147 -22 3 -32 -4 -54 -40z"/>
<path d="M2846 2631 c-78 -92 -90 -123 -57 -141 25 -13 59 15 131 104 51 65
60 92 38 114 -22 22 -36 12 -112 -77z"/>
<path d="M2624 2398 c-17 -13 -58 -47 -93 -77 -50 -44 -61 -60 -59 -80 2 -19
10 -27 29 -29 19 -2 45 14 112 73 89 78 104 105 68 125 -25 13 -22 14 -57 -12z"/>
<path d="M2302 2148 c-6 -7 -45 -33 -86 -58 -78 -46 -97 -70 -76 -95 21 -25
48 -17 141 43 86 55 111 85 94 111 -9 15 -60 14 -73 -1z"/>
<path d="M1880 1907 c-80 -40 -106 -57 -108 -74 -2 -14 4 -26 17 -33 17 -9 36
-4 103 25 128 57 161 88 126 123 -17 17 -22 16 -138 -41z"/>
<path d="M1516 1764 c-108 -37 -126 -47 -126 -75 0 -39 32 -40 141 -4 109 37
136 54 126 79 -13 34 -40 34 -141 0z"/>
<path d="M1101 1664 c-91 -14 -117 -29 -106 -63 5 -18 14 -21 57 -21 133 0
237 38 212 78 -14 22 -56 23 -163 6z"/>
<path d="M641 1631 c-56 -8 -76 -34 -45 -60 19 -15 37 -17 130 -13 60 2 115 9
122 14 15 13 16 40 0 56 -13 13 -125 14 -207 3z"/>
<path d="M15832 7788 c-17 -17 -15 -55 4 -62 9 -3 64 -6 124 -6 85 0 112 3
124 16 19 18 19 20 6 45 -10 17 -22 19 -128 19 -79 0 -122 -4 -130 -12z"/>
<path d="M15514 7766 c-98 -16 -130 -46 -85 -78 17 -12 35 -12 113 0 121 17
142 24 146 45 9 47 -37 56 -174 33z"/>
<path d="M15135 7669 c-99 -33 -115 -43 -115 -70 0 -41 38 -41 155 -1 107 36
110 38 110 67 0 26 -4 30 -30 32 -16 1 -70 -12 -120 -28z"/>
<path d="M14750 7512 c-80 -40 -95 -51 -95 -71 0 -48 26 -48 127 -1 110 51
133 69 123 99 -10 33 -49 26 -155 -27z"/>
<path d="M14417 7331 c-43 -27 -87 -57 -97 -66 -26 -23 -25 -51 1 -65 17 -10
35 -2 120 52 100 64 121 87 99 113 -20 24 -40 18 -123 -34z"/>
<path d="M14134 7128 c-67 -50 -144 -123 -150 -140 -7 -23 12 -48 36 -48 24 0
190 147 190 169 0 19 -18 41 -35 41 -6 0 -25 -10 -41 -22z"/>
<path d="M13781 6787 c-69 -82 -88 -126 -60 -142 23 -15 57 10 119 86 73 91
85 132 38 137 -22 3 -37 -10 -97 -81z"/>
<path d="M13540 6458 c-68 -104 -75 -141 -28 -146 23 -3 33 7 87 90 69 104 76
141 29 146 -25 3 -34 -6 -88 -90z"/>
<path d="M13376 6152 c-53 -104 -76 -173 -65 -194 7 -13 19 -18 36 -16 22 3
32 17 69 103 47 108 50 125 32 143 -24 24 -47 13 -72 -36z"/>
<path d="M13241 5803 c-5 -10 -21 -62 -35 -116 -20 -74 -24 -102 -16 -117 12
-22 42 -26 58 -7 12 14 62 196 62 225 0 33 -53 44 -69 15z"/>
<path d="M13157 5416 c-17 -17 -37 -115 -40 -195 -2 -41 2 -56 16 -65 35 -22
50 4 68 115 22 131 22 125 3 143 -19 20 -29 20 -47 2z"/>
<path d="M13102 5007 c-6 -7 -14 -62 -18 -123 -6 -96 -4 -112 10 -127 21 -21
30 -21 49 -3 18 19 32 233 16 253 -14 17 -43 17 -57 0z"/>
<path d="M13094 4603 c-15 -15 -16 -31 -10 -125 3 -59 9 -114 12 -122 11 -29
57 -30 68 -1 10 28 -7 236 -21 251 -19 18 -28 18 -49 -3z"/>
<path d="M13122 4198 c-7 -7 -12 -22 -12 -33 0 -48 33 -211 45 -224 15 -16 51
-7 59 15 7 18 -20 196 -34 232 -10 24 -39 29 -58 10z"/>
<path d="M13190 3790 c-9 -16 -5 -42 15 -118 15 -53 31 -105 37 -115 13 -24
61 -19 66 7 4 21 -46 215 -61 234 -15 19 -45 14 -57 -8z"/>
<path d="M13310 3400 c-10 -19 12 -84 68 -200 22 -44 68 -55 77 -18 5 22 -61
194 -87 226 -16 18 -46 14 -58 -8z"/>
<path d="M13487 3044 c-18 -18 -3 -59 53 -144 54 -82 63 -91 88 -88 44 5 39
36 -26 139 -45 72 -65 95 -83 97 -14 2 -28 0 -32 -4z"/>
<path d="M13722 2708 c-22 -22 -13 -49 38 -114 72 -89 106 -117 131 -104 33
18 21 49 -57 141 -76 89 -90 99 -112 77z"/>
<path d="M13998 2409 c-34 -19 -19 -47 69 -124 67 -59 93 -75 112 -73 19 2 27
10 29 29 2 20 -9 36 -59 80 -70 60 -120 99 -128 99 -3 0 -14 -5 -23 -11z"/>
<path d="M14307 2153 c-14 -13 -6 -44 16 -63 41 -36 166 -110 186 -110 26 0
44 25 36 50 -3 11 -9 20 -13 20 -4 0 -45 25 -91 55 -78 51 -118 65 -134 48z"/>
<path d="M14662 1948 c-17 -17 -15 -42 6 -61 10 -9 59 -35 110 -57 76 -34 95
-39 112 -30 14 7 20 19 18 33 -2 17 -28 34 -108 74 -116 57 -121 58 -138 41z"/>
<path d="M15038 1780 c-37 -30 -14 -51 106 -92 113 -40 146 -39 146 1 0 28
-18 38 -129 76 -99 33 -101 33 -123 15z"/>
<path d="M15422 1668 c-32 -32 2 -61 89 -76 37 -7 89 -12 117 -12 43 0 52 3
57 21 11 35 -15 48 -120 64 -119 18 -128 18 -143 3z"/>
<path d="M15832 1628 c-16 -16 -15 -43 1 -56 6 -5 61 -12 121 -14 93 -4 111
-2 130 13 32 27 11 52 -50 61 -83 11 -189 9 -202 -4z"/>
<path d="M1612 4784 c-108 -55 -65 -224 56 -224 43 0 95 39 109 83 33 99 -71
188 -165 141z"/>
<path d="M14963 4785 c-17 -7 -39 -25 -49 -40 -19 -30 -22 -91 -5 -124 16 -30
69 -61 104 -61 121 0 162 172 53 224 -41 19 -61 20 -103 1z"/>
</g>
</svg>
